<svg width="26" height="25" viewBox="0 0 26 25" fill="none" xmlns="http://www.w3.org/2000/svg">
<path d="M13.2008 9.49365C12.6216 9.49387 12.0555 9.66582 11.574 9.98776C11.0925 10.3097 10.7173 10.7672 10.4958 11.3023C10.2743 11.8375 10.2165 12.4263 10.3296 12.9944C10.4427 13.5624 10.7217 14.0841 11.1314 14.4936C11.541 14.9031 12.0628 15.1819 12.6309 15.2948C13.199 15.4077 13.7878 15.3497 14.3229 15.128C14.858 14.9063 15.3153 14.5309 15.6371 14.0493C15.9588 13.5677 16.1306 13.0015 16.1306 12.4223C16.13 11.6456 15.8211 10.9008 15.2717 10.3517C14.7224 9.80256 13.9775 9.49394 13.2008 9.49365ZM20.0481 7.24251C19.899 6.86467 19.6739 6.5215 19.3866 6.23428C19.0994 5.94706 18.7562 5.72192 18.3784 5.57282C17.2254 5.11765 14.4801 5.21978 13.2008 5.21978C11.9215 5.21978 9.17892 5.11381 8.0226 5.57282C7.64476 5.72192 7.30159 5.94706 7.01437 6.23428C6.72714 6.5215 6.50201 6.86467 6.35291 7.24251C5.89829 8.39553 5.99987 11.1436 5.99987 12.4218C5.99987 13.7 5.89829 16.4447 6.35511 17.6016C6.5042 17.9794 6.72934 18.3226 7.01656 18.6098C7.30378 18.8971 7.64696 19.1222 8.0248 19.2713C9.17782 19.7265 11.9231 19.6243 13.203 19.6243C14.4828 19.6243 17.2243 19.7303 18.3806 19.2713C18.7584 19.1222 19.1016 18.8971 19.3888 18.6098C19.676 18.3226 19.9012 17.9794 20.0503 17.6016C20.5087 16.4486 20.4033 13.7005 20.4033 12.4223C20.4033 11.1441 20.5087 8.39993 20.0503 7.24306L20.0481 7.24251ZM13.2008 16.9246C12.3103 16.9246 11.4398 16.6606 10.6994 16.1658C9.95904 15.6711 9.38197 14.968 9.04121 14.1453C8.70044 13.3226 8.61128 12.4173 8.785 11.544C8.95872 10.6706 9.38752 9.86839 10.0172 9.23874C10.6468 8.60908 11.4491 8.18028 12.3224 8.00656C13.1958 7.83284 14.101 7.922 14.9237 8.26276C15.7464 8.60353 16.4496 9.1806 16.9443 9.921C17.439 10.6614 17.7031 11.5319 17.7031 12.4223C17.7038 13.0138 17.5878 13.5996 17.3618 14.1461C17.1358 14.6927 16.8042 15.1893 16.386 15.6075C15.9678 16.0258 15.4711 16.3574 14.9246 16.5834C14.378 16.8094 13.7922 16.9253 13.2008 16.9246ZM17.8886 8.78207C17.6808 8.78218 17.4775 8.72064 17.3046 8.60523C17.1317 8.48982 16.997 8.32573 16.9173 8.13371C16.8377 7.9417 16.8168 7.73038 16.8573 7.52649C16.8978 7.3226 16.9978 7.13529 17.1448 6.98827C17.2917 6.84124 17.479 6.7411 17.6829 6.70051C17.8867 6.65991 18.0981 6.68069 18.2901 6.76022C18.4822 6.83974 18.6463 6.97444 18.7618 7.14727C18.8773 7.3201 18.939 7.5233 18.939 7.73117C18.9396 7.86921 18.9129 8.00601 18.8605 8.13372C18.8081 8.26142 18.731 8.37752 18.6336 8.47536C18.5362 8.5732 18.4205 8.65085 18.293 8.70386C18.1655 8.75687 18.0289 8.7842 17.8908 8.78427L17.8886 8.78207ZM22.8642 0.123413H3.53734C2.83836 0.123413 2.16802 0.401079 1.67377 0.895328C1.17952 1.38958 0.901855 2.05992 0.901855 2.7589L0.901855 22.0858C0.901855 22.7847 1.17952 23.4551 1.67377 23.9493C2.16802 24.4436 2.83836 24.7212 3.53734 24.7212H22.8642C23.5632 24.7212 24.2335 24.4436 24.7278 23.9493C25.222 23.4551 25.4997 22.7847 25.4997 22.0858V2.7589C25.4997 2.05992 25.222 1.38958 24.7278 0.895328C24.2335 0.401079 23.5632 0.123413 22.8642 0.123413ZM21.9242 16.0461C21.8534 17.4534 21.5322 18.7003 20.5049 19.7248C19.4776 20.7494 18.2318 21.0771 16.8262 21.1441C15.3761 21.2259 11.0287 21.2259 9.57863 21.1441C8.17139 21.0733 6.92887 20.7516 5.89994 19.7248C4.871 18.6981 4.54761 17.4506 4.48062 16.0461C4.39881 14.5955 4.39881 10.2475 4.48062 8.79854C4.55145 7.3913 4.86881 6.14439 5.89994 5.11985C6.93107 4.0953 8.17689 3.77136 9.57863 3.70437C11.0287 3.62257 15.3761 3.62257 16.8262 3.70437C18.2334 3.7752 19.4798 4.09695 20.5049 5.12369C21.53 6.15043 21.8572 7.39789 21.9242 8.80513C22.006 10.2503 22.006 14.5944 21.9242 16.0461Z" fill="white"/>
</svg>
