<svg width="25" height="24" viewBox="0 0 25 24" fill="none" xmlns="http://www.w3.org/2000/svg">
<path d="M4.85728 0.123413C2.68368 0.123413 0.921631 1.88546 0.921631 4.05907V19.8017C0.921631 21.9753 2.68368 23.7373 4.85728 23.7373H20.5999C22.7735 23.7373 24.5356 21.9753 24.5356 19.8017V4.05907C24.5356 1.88546 22.7735 0.123413 20.5999 0.123413H4.85728ZM6.03007 5.18354H10.4928L13.662 9.68692L17.5076 5.18354H18.9132L14.2967 10.5885L19.9893 18.6772H15.5277L11.8501 13.4524L7.38735 18.6772H5.98176L11.2154 12.5508L6.03007 5.18354ZM8.18238 6.30801L16.1141 17.5527H17.837L9.90533 6.30801H8.18238Z" fill="white"/>
</svg>
